<svg width="256" height="92" viewBox="0 0 256 92" fill="none" xmlns="http://www.w3.org/2000/svg">
<rect x="3" y="2" width="251" height="88" fill="black"/>
<path d="M38.7693 46.6301C50.6646 46.6301 60.0657 56.5044 60.0657 68.6849V78.7671H63.2251V17.6438H60.3077L60.0657 57.3424C56.0632 49.4787 48.0286 44.1095 38.7693 44.1095C30.0135 44.1095 22.0379 49.5408 17.8462 56.7123L17.8462 17.6438H14.4198V78.7671H17.8462L17.9732 62.9231C20.4474 53.5369 28.8207 46.6301 38.7693 46.6301Z" fill="white"/>
<path fill-rule="evenodd" clip-rule="evenodd" d="M256 0H0V92H256V0ZM73.8462 2.52055H3.69231V89.4794H73.8462V2.52055Z" fill="white"/>
<path fill-rule="evenodd" clip-rule="evenodd" d="M228.923 40.3289C234.361 40.3289 238.769 44.5607 238.769 49.7809C238.769 50.3874 238.71 50.9805 238.596 51.5552H223.052C223.836 53.9509 226.168 55.6884 228.923 55.6884C231.115 55.6884 233.039 54.5882 234.13 52.9316L237.434 54.5366C235.727 57.3455 232.555 59.233 228.923 59.233C223.485 59.233 219.077 55.0011 219.077 49.7809C219.077 44.5607 223.485 40.3289 228.923 40.3289ZM223.052 48.3623C223.836 45.9666 226.168 43.8734 228.923 43.8734C231.678 43.8734 234.575 45.9666 235.36 48.3623H223.052Z" fill="black"/>
<path fill-rule="evenodd" clip-rule="evenodd" d="M182.285 49.7498C182.285 54.9686 178.135 59.1992 173.015 59.1992C170.823 59.1992 168.66 58.0698 167.072 56.773V58.3961H164.489V35.2607H167.072V42.755C168.622 41.5683 170.928 40.3004 173.015 40.3004C178.135 40.3004 182.285 44.5311 182.285 49.7498ZM173.387 55.8565C176.673 55.8565 179.337 53.0806 179.337 49.6562C179.337 46.2319 176.673 43.456 173.387 43.456C170.101 43.456 167.437 46.2319 167.437 49.6562C167.437 53.0806 170.101 55.8565 173.387 55.8565Z" fill="black"/>
<path d="M98.9538 30.2466H96V59.2329H98.9538V50.411H135.385V59.2329H138.338V30.2466H135.385V47.2603H98.9538V30.2466Z" fill="black"/>
<path d="M152 55.4521C154.379 55.4521 156.308 53.4773 156.308 51.0412V40.3289H160V51.0412C160 55.5654 156.418 59.2329 152 59.2329C147.582 59.2329 144.312 55.5654 144.312 51.0412V40.3289H147.692L147.692 51.0412C147.692 53.4773 149.621 55.4521 152 55.4521Z" fill="black"/>
<path d="M187.692 40.9588V58.6027H190.769V47.2602C192.205 44.9497 195.938 41.715 199.385 47.2602V58.6027H203.077V47.5222C204.308 45.089 207.754 41.6825 211.692 47.5222V58.6027H214.769V46.6301C213.333 43.0255 208.738 37.402 201.846 43.7438C200 41.8914 195.2 39.1569 190.769 43.0384V40.9588H187.692Z" fill="black"/>
</svg>
